<svg width="25" height="25" viewBox="0 0 25 25" fill="none" xmlns="http://www.w3.org/2000/svg">
<path fill-rule="evenodd" clip-rule="evenodd" d="M12.4838 22.7924C10.6614 22.7924 8.86591 22.3033 7.29818 21.3855C7.13069 21.2917 6.93639 21.2381 6.7488 21.2381C6.64831 21.2381 6.55451 21.2515 6.46072 21.2783L3.04386 22.2162L4.23641 19.5966C4.39721 19.2349 4.35701 18.8262 4.12252 18.5046C2.85627 16.7426 2.1796 14.659 2.1796 12.4883C2.1796 6.8069 6.8024 2.1841 12.4838 2.1841C18.1651 2.1841 22.7879 6.8069 22.7879 12.4883C22.7879 18.1696 18.1651 22.7924 12.4838 22.7924ZM12.4838 0C5.60315 0 0.00219823 5.60095 0.00219823 12.4883C0.00219823 14.9068 0.685568 17.2316 1.99201 19.255L0.0959941 23.4289C-0.0781982 23.8175 -0.0112012 24.2663 0.263487 24.5879C0.471178 24.8358 0.779364 24.9698 1.08755 24.9698C1.18805 24.9698 1.28184 24.9564 1.38234 24.9296L6.60141 23.4959C8.41033 24.4606 10.4336 24.9698 12.4838 24.9698C19.371 24.9698 24.972 19.3689 24.972 12.4883C24.972 5.60095 19.371 0 12.4838 0Z" fill="#319F1C"/>
</svg>
