<svg width="8" height="10" viewBox="0 0 8 10" fill="none" xmlns="http://www.w3.org/2000/svg">
<path d="M6.81256 3.75H6.50006V2.5C6.50006 1.12125 5.37881 0 4.00006 0C2.62131 0 1.50006 1.12125 1.50006 2.5V3.75H1.18756C0.670894 3.75 0.250061 4.17042 0.250061 4.6875V9.0625C0.250061 9.57958 0.670894 10 1.18756 10H6.81256C7.32923 10 7.75006 9.57958 7.75006 9.0625V4.6875C7.75006 4.17042 7.32923 3.75 6.81256 3.75ZM2.33339 2.5C2.33339 1.58083 3.08089 0.833333 4.00006 0.833333C4.91923 0.833333 5.66673 1.58083 5.66673 2.5V3.75H2.33339V2.5ZM4.41673 6.9675V7.91667C4.41673 8.14667 4.23048 8.33333 4.00006 8.33333C3.76964 8.33333 3.58339 8.14667 3.58339 7.91667V6.9675C3.33548 6.82292 3.16673 6.55708 3.16673 6.25C3.16673 5.79042 3.54048 5.41667 4.00006 5.41667C4.45964 5.41667 4.83339 5.79042 4.83339 6.25C4.83339 6.55708 4.66464 6.82292 4.41673 6.9675Z" fill="black"/>
</svg>
